# xmcd
#
# Track frame offsets: 
#        150
#        15140
#        31660
#        47150
#        61290
#        76525
#        93145
#        107402
#        122750
#        137812
#
# Disc length: 2044 seconds
#
# Revision: 0
# Processed by: cddbd v1.5.2PL0 Copyright (c) Steve Scherf et al.
# Submitted via: ExactAudioCopyFreeDBPlugin 1.0
#
DISCID=6507fa0a
DTITLE=ยอดรัก สลักใจ - อมตะ รุ่งเพชร 1
DYEAR=1900
DGENRE=
TTITLE0=ฝนเดือนหก
TTITLE1=น้ำลงเดือนยี่
TTITLE2=คืนฝนตก
TTITLE3=กบจำศีล
TTITLE4=แล้วแต่วาสนา
TTITLE5=ความรักเจ้าขา
TTITLE6=รักกันให้โลกลือ
TTITLE7=โชครัก
TTITLE8=ไอดินกลิ่นสาว
TTITLE9=มอญซ่อนผ้า
EXTD=
EXTT0=
EXTT1=
EXTT2=
EXTT3=
EXTT4=
EXTT5=
EXTT6=
EXTT7=
EXTT8=
EXTT9=
PLAYORDER=
